<?xml version="1.0" encoding="UTF-8"?>
<!DOCTYPE svg PUBLIC "-//W3C//DTD SVG 1.1//EN" "http://www.w3.org/Graphics/SVG/1.1/DTD/svg11.dtd">
<svg version="1.2" width="40.89mm" height="25.4mm" viewBox="0 0 4089 2540" preserveAspectRatio="xMidYMid" fill-rule="evenodd" stroke-width="28.222" stroke-linejoin="round" xmlns="http://www.w3.org/2000/svg" xmlns:ooo="http://xml.openoffice.org/svg/export" xmlns:xlink="http://www.w3.org/1999/xlink" xmlns:presentation="http://sun.com/xmlns/staroffice/presentation" xmlns:smil="http://www.w3.org/2001/SMIL20/" xmlns:anim="urn:oasis:names:tc:opendocument:xmlns:animation:1.0" xml:space="preserve">
 <defs class="ClipPathGroup">
  <clipPath id="presentation_clip_path" clipPathUnits="userSpaceOnUse">
   <rect x="0" y="0" width="4089" height="2540"/>
  </clipPath>
  <clipPath id="presentation_clip_path_shrink" clipPathUnits="userSpaceOnUse">
   <rect x="4" y="2" width="4081" height="2535"/>
  </clipPath>
 </defs>
 <defs class="TextShapeIndex">
  <g ooo:slide="id1" ooo:id-list="id3 id4 id5 id6 id7 id8 id9 id10 id11 id12 id13 id14 id15 id16 id17 id18 id19"/>
 </defs>
 <defs class="EmbeddedBulletChars">
  <g id="bullet-char-template-57356" transform="scale(0.00048828125,-0.00048828125)">
   <path d="M 580,1141 L 1163,571 580,0 -4,571 580,1141 Z"/>
  </g>
  <g id="bullet-char-template-57354" transform="scale(0.00048828125,-0.00048828125)">
   <path d="M 8,1128 L 1137,1128 1137,0 8,0 8,1128 Z"/>
  </g>
  <g id="bullet-char-template-10146" transform="scale(0.00048828125,-0.00048828125)">
   <path d="M 174,0 L 602,739 174,1481 1456,739 174,0 Z M 1358,739 L 309,1346 659,739 1358,739 Z"/>
  </g>
  <g id="bullet-char-template-10132" transform="scale(0.00048828125,-0.00048828125)">
   <path d="M 2015,739 L 1276,0 717,0 1260,543 174,543 174,936 1260,936 717,1481 1274,1481 2015,739 Z"/>
  </g>
  <g id="bullet-char-template-10007" transform="scale(0.00048828125,-0.00048828125)">
   <path d="M 0,-2 C -7,14 -16,27 -25,37 L 356,567 C 262,823 215,952 215,954 215,979 228,992 255,992 264,992 276,990 289,987 310,991 331,999 354,1012 L 381,999 492,748 772,1049 836,1024 860,1049 C 881,1039 901,1025 922,1006 886,937 835,863 770,784 769,783 710,716 594,584 L 774,223 C 774,196 753,168 711,139 L 727,119 C 717,90 699,76 672,76 641,76 570,178 457,381 L 164,-76 C 142,-110 111,-127 72,-127 30,-127 9,-110 8,-76 1,-67 -2,-52 -2,-32 -2,-23 -1,-13 0,-2 Z"/>
  </g>
  <g id="bullet-char-template-10004" transform="scale(0.00048828125,-0.00048828125)">
   <path d="M 285,-33 C 182,-33 111,30 74,156 52,228 41,333 41,471 41,549 55,616 82,672 116,743 169,778 240,778 293,778 328,747 346,684 L 369,508 C 377,444 397,411 428,410 L 1163,1116 C 1174,1127 1196,1133 1229,1133 1271,1133 1292,1118 1292,1087 L 1292,965 C 1292,929 1282,901 1262,881 L 442,47 C 390,-6 338,-33 285,-33 Z"/>
  </g>
  <g id="bullet-char-template-9679" transform="scale(0.00048828125,-0.00048828125)">
   <path d="M 813,0 C 632,0 489,54 383,161 276,268 223,411 223,592 223,773 276,916 383,1023 489,1130 632,1184 813,1184 992,1184 1136,1130 1245,1023 1353,916 1407,772 1407,592 1407,412 1353,268 1245,161 1136,54 992,0 813,0 Z"/>
  </g>
  <g id="bullet-char-template-8226" transform="scale(0.00048828125,-0.00048828125)">
   <path d="M 346,457 C 273,457 209,483 155,535 101,586 74,649 74,723 74,796 101,859 155,911 209,963 273,989 346,989 419,989 480,963 531,910 582,859 608,796 608,723 608,648 583,586 532,535 482,483 420,457 346,457 Z"/>
  </g>
  <g id="bullet-char-template-8211" transform="scale(0.00048828125,-0.00048828125)">
   <path d="M -4,459 L 1135,459 1135,606 -4,606 -4,459 Z"/>
  </g>
  <g id="bullet-char-template-61548" transform="scale(0.00048828125,-0.00048828125)">
   <path d="M 173,740 C 173,903 231,1043 346,1159 462,1274 601,1332 765,1332 928,1332 1067,1274 1183,1159 1299,1043 1357,903 1357,740 1357,577 1299,437 1183,322 1067,206 928,148 765,148 601,148 462,206 346,322 231,437 173,577 173,740 Z"/>
  </g>
 </defs>
 <g>
  <g id="id2" class="Master_Slide">
   <g id="bg-id2" class="Background"/>
   <g id="bo-id2" class="BackgroundObjects"/>
  </g>
 </g>
 <g class="SlideGroup">
  <g>
   <g id="container-id1">
    <g id="id1" class="Slide" clip-path="url(#presentation_clip_path)">
     <g class="Page">
      <g class="Group">
       <g class="com.sun.star.drawing.PolyPolygonShape">
        <g id="id3">
         <rect class="BoundingBox" stroke="none" fill="none" x="0" y="317" width="1286" height="721"/>
         <path fill="rgb(139,177,197)" stroke="none" d="M 0,317 L 0,653 2,718 6,774 9,799 13,822 17,844 22,863 28,881 34,897 41,913 48,927 56,940 65,952 74,963 84,973 94,982 105,990 117,997 128,1004 141,1010 154,1015 167,1020 182,1023 197,1026 215,1029 255,1033 303,1035 360,1036 472,1036 529,1035 554,1033 578,1030 599,1027 619,1022 636,1017 651,1011 658,1008 665,1004 671,1000 677,996 689,986 700,975 711,963 720,949 729,934 737,918 744,900 750,881 756,861 760,840 763,817 765,792 767,767 767,741 767,651 1284,651 1284,317 0,317 Z M 220,651 L 547,651 548,676 547,686 546,697 544,706 543,710 542,715 540,718 539,722 537,726 535,728 533,731 531,734 528,737 525,739 522,741 518,743 515,745 511,747 506,749 501,750 490,753 478,754 464,756 448,757 431,757 326,757 310,757 296,756 282,754 272,752 261,749 257,747 253,746 249,743 246,741 243,739 240,737 238,734 235,731 233,727 231,723 230,719 228,715 225,705 223,693 221,681 220,666 220,651 Z"/>
        </g>
       </g>
       <g class="com.sun.star.drawing.PolyPolygonShape">
        <g id="id4">
         <rect class="BoundingBox" stroke="none" fill="none" x="448" y="1123" width="838" height="243"/>
         <path fill="rgb(139,177,197)" stroke="none" d="M 449,1365 L 709,1365 709,1123 449,1123 449,1365 Z M 1023,1365 L 1284,1365 1284,1123 1023,1123 1023,1365 Z"/>
        </g>
       </g>
       <g class="com.sun.star.drawing.PolyPolygonShape">
        <g id="id5">
         <rect class="BoundingBox" stroke="none" fill="none" x="0" y="1405" width="1286" height="732"/>
         <path fill="rgb(139,177,197)" stroke="none" d="M 0,2135 L 257,2135 257,1936 1284,1936 1284,1603 257,1603 257,1405 0,1405 0,2135 Z"/>
        </g>
       </g>
      </g>
      <g class="Group">
       <g class="com.sun.star.drawing.PolyPolygonShape">
        <g id="id6">
         <rect class="BoundingBox" stroke="none" fill="none" x="1442" y="634" width="220" height="392"/>
         <path fill="rgb(139,177,197)" stroke="none" d="M 1442,634 L 1544,634 1564,634 1581,636 1589,637 1596,638 1602,639 1608,641 1614,642 1619,644 1623,646 1628,649 1632,651 1635,654 1639,656 1642,659 1644,663 1647,666 1649,669 1651,673 1653,677 1655,681 1656,685 1657,689 1658,694 1659,699 1660,712 1661,726 1661,744 1661,778 1661,795 1660,803 1659,810 1658,817 1657,823 1655,828 1653,832 1652,835 1651,837 1650,839 1649,841 1646,844 1642,848 1639,851 1634,854 1630,856 1625,859 1620,861 1614,863 1608,864 1601,866 1594,867 1587,867 1579,868 1571,868 1544,868 1544,1025 1442,1025 1442,634 Z M 1544,701 L 1544,801 1551,801 1555,801 1558,801 1561,800 1562,800 1563,799 1564,799 1565,798 1566,798 1567,797 1568,796 1569,796 1570,795 1571,794 1571,793 1572,792 1572,791 1573,790 1574,787 1575,783 1575,780 1576,775 1576,771 1576,765 1576,733 1576,728 1576,724 1575,720 1574,717 1574,714 1573,712 1573,711 1572,710 1571,709 1571,708 1570,707 1569,706 1568,706 1567,705 1566,704 1565,704 1563,703 1560,703 1557,702 1553,701 1549,701 1544,701 Z"/>
        </g>
       </g>
       <g class="com.sun.star.drawing.PolyPolygonShape">
        <g id="id7">
         <rect class="BoundingBox" stroke="none" fill="none" x="1689" y="626" width="236" height="408"/>
         <path fill="rgb(139,177,197)" stroke="none" d="M 1924,863 L 1923,913 1922,932 1921,946 1920,952 1919,958 1917,964 1915,970 1913,975 1910,981 1907,986 1904,991 1900,996 1896,1001 1891,1005 1887,1009 1882,1013 1876,1016 1870,1019 1864,1022 1858,1025 1851,1027 1845,1029 1837,1030 1830,1031 1823,1032 1815,1033 1807,1033 1799,1033 1791,1032 1784,1032 1777,1030 1770,1029 1763,1027 1757,1025 1750,1023 1744,1020 1738,1017 1733,1014 1728,1010 1723,1006 1718,1002 1714,997 1710,992 1706,987 1703,982 1700,976 1698,971 1696,965 1694,959 1693,953 1692,947 1691,933 1690,914 1689,863 1689,796 1690,746 1691,727 1692,713 1693,707 1694,701 1696,695 1698,689 1700,684 1703,678 1706,673 1709,668 1713,663 1717,658 1722,654 1726,650 1731,646 1737,643 1743,640 1749,637 1755,634 1762,632 1768,630 1776,629 1783,628 1790,627 1798,626 1807,626 1814,626 1822,627 1829,627 1836,629 1843,630 1850,632 1856,634 1863,636 1869,639 1875,642 1880,645 1885,649 1890,653 1895,657 1899,662 1903,667 1907,672 1910,677 1913,683 1915,688 1917,694 1919,700 1920,706 1921,712 1922,726 1923,745 1924,796 1924,863 Z M 1822,735 L 1822,722 1821,712 1821,708 1820,705 1820,702 1819,701 1819,700 1819,699 1818,698 1818,697 1817,696 1817,696 1816,695 1815,694 1815,694 1814,693 1813,693 1812,693 1811,692 1810,692 1809,692 1808,692 1807,692 1806,692 1805,692 1804,692 1803,692 1802,693 1802,693 1801,693 1800,694 1799,694 1799,694 1798,695 1797,695 1797,696 1796,697 1796,697 1795,698 1795,699 1794,700 1794,701 1793,703 1793,706 1792,710 1792,715 1791,721 1791,735 1791,917 1791,932 1792,945 1792,949 1793,953 1793,957 1793,958 1794,959 1794,960 1794,961 1795,962 1796,963 1796,963 1797,964 1797,964 1798,965 1799,965 1800,966 1801,966 1802,967 1803,967 1804,967 1805,967 1806,967 1807,967 1809,967 1810,967 1811,966 1812,966 1813,966 1814,965 1815,965 1815,964 1816,963 1817,963 1817,962 1818,961 1818,960 1819,959 1819,958 1820,957 1820,955 1820,952 1821,947 1821,942 1822,930 1822,914 1822,735 Z"/>
        </g>
       </g>
       <g class="com.sun.star.drawing.PolyPolygonShape">
        <g id="id8">
         <rect class="BoundingBox" stroke="none" fill="none" x="1963" y="634" width="166" height="392"/>
         <path fill="rgb(139,177,197)" stroke="none" d="M 2065,634 L 2065,947 2127,947 2127,1025 1963,1025 1963,634 2065,634 Z"/>
        </g>
       </g>
       <g class="com.sun.star.drawing.PolyPolygonShape">
        <g id="id9">
         <rect class="BoundingBox" stroke="none" fill="none" x="2096" y="634" width="241" height="392"/>
         <path fill="rgb(139,177,197)" stroke="none" d="M 2336,634 L 2262,883 2262,1025 2168,1025 2168,883 2097,634 2190,634 2206,730 2212,764 2215,789 2243,634 2336,634 Z"/>
        </g>
       </g>
       <g class="com.sun.star.drawing.PolyPolygonShape">
        <g id="id10">
         <rect class="BoundingBox" stroke="none" fill="none" x="2349" y="626" width="237" height="408"/>
         <path fill="rgb(139,177,197)" stroke="none" d="M 2585,778 L 2483,778 2483,742 2483,727 2482,715 2482,710 2481,706 2481,703 2481,702 2480,700 2480,699 2479,698 2479,698 2478,697 2478,696 2477,695 2476,695 2475,694 2475,694 2474,693 2473,693 2472,693 2470,692 2469,692 2468,692 2467,692 2466,692 2465,692 2464,692 2463,692 2462,693 2461,693 2460,693 2459,694 2458,694 2458,695 2457,695 2456,696 2456,697 2455,698 2455,698 2454,699 2454,700 2454,701 2453,704 2452,708 2452,712 2451,723 2451,736 2451,924 2451,936 2452,946 2452,950 2453,953 2454,956 2454,958 2454,959 2455,960 2455,961 2456,962 2456,962 2457,963 2458,964 2458,964 2459,965 2460,965 2461,966 2462,966 2463,966 2464,967 2465,967 2466,967 2467,967 2469,967 2470,967 2471,967 2472,966 2474,966 2475,966 2476,965 2477,965 2477,964 2478,963 2479,963 2480,962 2480,961 2481,960 2482,959 2482,958 2483,956 2483,955 2484,952 2484,948 2485,944 2486,933 2486,921 2486,874 2466,874 2466,815 2585,815 2585,1025 2521,1025 2512,997 2509,1001 2506,1005 2503,1009 2500,1013 2496,1016 2493,1019 2489,1022 2485,1024 2481,1026 2477,1028 2473,1030 2468,1031 2463,1032 2458,1032 2453,1033 2448,1033 2442,1033 2436,1032 2429,1031 2423,1030 2417,1028 2412,1026 2406,1023 2400,1021 2395,1017 2390,1014 2385,1010 2381,1007 2377,1003 2373,999 2369,994 2366,990 2364,985 2361,981 2359,976 2357,971 2355,966 2354,961 2353,956 2352,951 2351,940 2350,926 2349,910 2349,891 2349,775 2349,749 2351,727 2352,708 2354,700 2355,694 2356,690 2357,687 2358,684 2359,681 2363,675 2367,669 2371,664 2377,658 2383,652 2390,647 2397,642 2405,638 2413,634 2422,631 2432,629 2442,627 2453,626 2464,626 2475,626 2485,627 2495,629 2504,631 2513,633 2522,636 2530,640 2538,644 2545,649 2551,654 2557,659 2562,664 2566,670 2570,676 2574,682 2575,685 2576,688 2578,695 2580,702 2582,710 2583,719 2584,728 2584,739 2585,761 2585,778 Z"/>
        </g>
       </g>
       <g class="com.sun.star.drawing.PolyPolygonShape">
        <g id="id11">
         <rect class="BoundingBox" stroke="none" fill="none" x="2623" y="634" width="229" height="392"/>
         <path fill="rgb(139,177,197)" stroke="none" d="M 2623,634 L 2695,634 2728,634 2755,635 2777,637 2785,638 2792,640 2799,641 2805,643 2810,646 2816,649 2821,653 2825,658 2830,663 2834,668 2836,671 2838,674 2839,678 2841,681 2844,689 2846,698 2848,707 2849,718 2850,729 2850,741 2850,752 2849,762 2848,771 2847,779 2846,786 2844,793 2843,795 2841,798 2840,800 2839,802 2837,804 2835,806 2834,808 2832,809 2829,811 2827,812 2825,814 2822,815 2816,817 2809,819 2802,820 2794,821 2801,823 2808,825 2814,827 2819,830 2824,832 2828,835 2830,837 2832,838 2833,840 2835,841 2837,844 2839,847 2841,850 2843,853 2844,856 2846,859 2847,862 2847,864 2848,867 2849,872 2849,884 2850,901 2850,922 2850,1025 2756,1025 2756,895 2756,881 2755,875 2755,870 2754,865 2753,862 2753,860 2752,859 2752,858 2751,856 2750,856 2750,855 2749,854 2748,853 2746,853 2745,852 2744,851 2742,851 2739,850 2735,849 2730,849 2725,849 2725,1025 2623,1025 2623,634 Z M 2725,701 L 2725,788 2729,788 2733,788 2736,787 2740,787 2742,786 2745,785 2746,785 2747,784 2748,784 2749,783 2750,783 2751,782 2751,781 2752,780 2753,778 2753,777 2754,775 2754,773 2755,769 2756,764 2756,759 2756,753 2756,731 2756,727 2756,723 2755,719 2754,716 2754,714 2753,713 2753,712 2752,710 2752,709 2751,708 2750,708 2749,707 2748,706 2748,705 2746,705 2745,704 2744,704 2743,703 2740,702 2737,702 2733,701 2729,701 2725,701 Z"/>
        </g>
       </g>
       <g class="com.sun.star.drawing.PolyPolygonShape">
        <g id="id12">
         <rect class="BoundingBox" stroke="none" fill="none" x="2867" y="634" width="258" height="392"/>
         <path fill="rgb(139,177,197)" stroke="none" d="M 3066,634 L 3124,1025 3020,1025 3015,955 2978,955 2973,1025 2867,1025 2919,634 3066,634 Z M 3012,886 L 2997,720 2977,886 3012,886 Z"/>
        </g>
       </g>
       <g class="com.sun.star.drawing.PolyPolygonShape">
        <g id="id13">
         <rect class="BoundingBox" stroke="none" fill="none" x="3140" y="634" width="220" height="392"/>
         <path fill="rgb(139,177,197)" stroke="none" d="M 3140,634 L 3242,634 3262,634 3279,636 3287,637 3294,638 3300,639 3306,641 3312,642 3317,644 3321,646 3326,649 3330,651 3333,654 3337,656 3340,659 3342,663 3345,666 3347,669 3349,673 3351,677 3353,681 3354,685 3355,689 3356,694 3357,699 3358,712 3359,726 3359,744 3359,778 3359,795 3358,803 3357,810 3356,817 3355,823 3353,828 3351,832 3350,835 3349,837 3348,839 3347,841 3344,844 3340,848 3337,851 3332,854 3328,856 3323,859 3318,861 3312,863 3306,864 3299,866 3292,867 3285,867 3277,868 3269,868 3242,868 3242,1025 3140,1025 3140,634 Z M 3242,701 L 3242,801 3249,801 3253,801 3256,801 3259,800 3260,800 3261,799 3262,799 3263,798 3264,798 3265,797 3266,796 3267,796 3268,795 3269,794 3269,793 3270,792 3270,791 3271,790 3272,787 3273,783 3273,780 3274,775 3274,771 3274,765 3274,733 3274,728 3274,724 3273,720 3272,717 3272,714 3271,712 3271,711 3270,710 3269,709 3269,708 3268,707 3267,706 3266,706 3265,705 3264,704 3263,704 3261,703 3258,703 3255,702 3251,701 3247,701 3242,701 Z"/>
        </g>
       </g>
       <g class="com.sun.star.drawing.PolyPolygonShape">
        <g id="id14">
         <rect class="BoundingBox" stroke="none" fill="none" x="3389" y="634" width="234" height="392"/>
         <path fill="rgb(139,177,197)" stroke="none" d="M 3622,634 L 3622,1025 3520,1025 3520,861 3491,861 3491,1025 3389,1025 3389,634 3491,634 3491,774 3520,774 3520,634 3622,634 Z"/>
        </g>
       </g>
       <g class="com.sun.star.drawing.PolyPolygonShape">
        <g id="id15">
         <rect class="BoundingBox" stroke="none" fill="none" x="3643" y="634" width="240" height="392"/>
         <path fill="rgb(139,177,197)" stroke="none" d="M 3882,634 L 3808,883 3808,1025 3714,1025 3714,883 3643,634 3736,634 3752,730 3758,764 3761,789 3789,634 3882,634 Z"/>
        </g>
       </g>
      </g>
      <g class="Group">
       <g class="com.sun.star.drawing.PolyPolygonShape">
        <g id="id16">
         <rect class="BoundingBox" stroke="none" fill="none" x="1421" y="1157" width="507" height="894"/>
         <path fill="rgb(0,0,0)" stroke="none" d="M 1927,1157 L 1927,1336 1790,1336 1790,2050 1558,2050 1558,1336 1421,1336 1421,1157 1927,1157 Z"/>
        </g>
       </g>
       <g class="com.sun.star.drawing.PolyPolygonShape">
        <g id="id17">
         <rect class="BoundingBox" stroke="none" fill="none" x="1981" y="1157" width="404" height="894"/>
         <path fill="rgb(0,147,221)" stroke="none" d="M 1981,1157 L 2368,1157 2368,1336 2213,1336 2213,1505 2358,1505 2358,1675 2213,1675 2213,1871 2384,1871 2384,2050 1981,2050 1981,1157 Z"/>
        </g>
       </g>
       <g class="com.sun.star.drawing.PolyPolygonShape">
        <g id="id18">
         <rect class="BoundingBox" stroke="none" fill="none" x="2398" y="1157" width="588" height="894"/>
         <path fill="rgb(221,18,123)" stroke="none" d="M 2852,1157 L 2985,2050 2747,2050 2735,1889 2652,1889 2638,2050 2398,2050 2516,1157 2852,1157 Z M 2729,1731 L 2694,1356 2649,1731 2729,1731 Z"/>
        </g>
       </g>
       <g class="com.sun.star.drawing.PolyPolygonShape">
        <g id="id19">
         <rect class="BoundingBox" stroke="none" fill="none" x="3027" y="1157" width="717" height="894"/>
         <path fill="rgb(255,245,0)" stroke="none" d="M 3743,1157 L 3743,2050 3540,2050 3540,1447 3459,2050 3315,2050 3231,1460 3230,2050 3027,2050 3027,1157 3327,1157 3354,1347 3388,1574 3440,1157 3743,1157 Z"/>
        </g>
       </g>
      </g>
     </g>
    </g>
   </g>
  </g>
 </g>
</svg>