<?xml version="1.0" encoding="UTF-8"?>
<!DOCTYPE svg PUBLIC "-//W3C//DTD SVG 1.1//EN" "http://www.w3.org/Graphics/SVG/1.1/DTD/svg11.dtd">
<svg version="1.2" width="50.8mm" height="45.72mm" viewBox="0 0 5080 4572" preserveAspectRatio="xMidYMid" fill-rule="evenodd" stroke-width="28.222" stroke-linejoin="round" xmlns="http://www.w3.org/2000/svg" xmlns:ooo="http://xml.openoffice.org/svg/export" xmlns:xlink="http://www.w3.org/1999/xlink" xmlns:presentation="http://sun.com/xmlns/staroffice/presentation" xmlns:smil="http://www.w3.org/2001/SMIL20/" xmlns:anim="urn:oasis:names:tc:opendocument:xmlns:animation:1.0" xml:space="preserve">
 <defs class="ClipPathGroup">
  <clipPath id="presentation_clip_path" clipPathUnits="userSpaceOnUse">
   <rect x="0" y="0" width="5080" height="4572"/>
  </clipPath>
  <clipPath id="presentation_clip_path_shrink" clipPathUnits="userSpaceOnUse">
   <rect x="5" y="4" width="5070" height="4563"/>
  </clipPath>
 </defs>
 <defs class="TextShapeIndex">
  <g ooo:slide="id1" ooo:id-list="id3 id4 id5 id6 id7 id8"/>
 </defs>
 <defs class="EmbeddedBulletChars">
  <g id="bullet-char-template-57356" transform="scale(0.00048828125,-0.00048828125)">
   <path d="M 580,1141 L 1163,571 580,0 -4,571 580,1141 Z"/>
  </g>
  <g id="bullet-char-template-57354" transform="scale(0.00048828125,-0.00048828125)">
   <path d="M 8,1128 L 1137,1128 1137,0 8,0 8,1128 Z"/>
  </g>
  <g id="bullet-char-template-10146" transform="scale(0.00048828125,-0.00048828125)">
   <path d="M 174,0 L 602,739 174,1481 1456,739 174,0 Z M 1358,739 L 309,1346 659,739 1358,739 Z"/>
  </g>
  <g id="bullet-char-template-10132" transform="scale(0.00048828125,-0.00048828125)">
   <path d="M 2015,739 L 1276,0 717,0 1260,543 174,543 174,936 1260,936 717,1481 1274,1481 2015,739 Z"/>
  </g>
  <g id="bullet-char-template-10007" transform="scale(0.00048828125,-0.00048828125)">
   <path d="M 0,-2 C -7,14 -16,27 -25,37 L 356,567 C 262,823 215,952 215,954 215,979 228,992 255,992 264,992 276,990 289,987 310,991 331,999 354,1012 L 381,999 492,748 772,1049 836,1024 860,1049 C 881,1039 901,1025 922,1006 886,937 835,863 770,784 769,783 710,716 594,584 L 774,223 C 774,196 753,168 711,139 L 727,119 C 717,90 699,76 672,76 641,76 570,178 457,381 L 164,-76 C 142,-110 111,-127 72,-127 30,-127 9,-110 8,-76 1,-67 -2,-52 -2,-32 -2,-23 -1,-13 0,-2 Z"/>
  </g>
  <g id="bullet-char-template-10004" transform="scale(0.00048828125,-0.00048828125)">
   <path d="M 285,-33 C 182,-33 111,30 74,156 52,228 41,333 41,471 41,549 55,616 82,672 116,743 169,778 240,778 293,778 328,747 346,684 L 369,508 C 377,444 397,411 428,410 L 1163,1116 C 1174,1127 1196,1133 1229,1133 1271,1133 1292,1118 1292,1087 L 1292,965 C 1292,929 1282,901 1262,881 L 442,47 C 390,-6 338,-33 285,-33 Z"/>
  </g>
  <g id="bullet-char-template-9679" transform="scale(0.00048828125,-0.00048828125)">
   <path d="M 813,0 C 632,0 489,54 383,161 276,268 223,411 223,592 223,773 276,916 383,1023 489,1130 632,1184 813,1184 992,1184 1136,1130 1245,1023 1353,916 1407,772 1407,592 1407,412 1353,268 1245,161 1136,54 992,0 813,0 Z"/>
  </g>
  <g id="bullet-char-template-8226" transform="scale(0.00048828125,-0.00048828125)">
   <path d="M 346,457 C 273,457 209,483 155,535 101,586 74,649 74,723 74,796 101,859 155,911 209,963 273,989 346,989 419,989 480,963 531,910 582,859 608,796 608,723 608,648 583,586 532,535 482,483 420,457 346,457 Z"/>
  </g>
  <g id="bullet-char-template-8211" transform="scale(0.00048828125,-0.00048828125)">
   <path d="M -4,459 L 1135,459 1135,606 -4,606 -4,459 Z"/>
  </g>
  <g id="bullet-char-template-61548" transform="scale(0.00048828125,-0.00048828125)">
   <path d="M 173,740 C 173,903 231,1043 346,1159 462,1274 601,1332 765,1332 928,1332 1067,1274 1183,1159 1299,1043 1357,903 1357,740 1357,577 1299,437 1183,322 1067,206 928,148 765,148 601,148 462,206 346,322 231,437 173,577 173,740 Z"/>
  </g>
 </defs>
 <g>
  <g id="id2" class="Master_Slide">
   <g id="bg-id2" class="Background"/>
   <g id="bo-id2" class="BackgroundObjects"/>
  </g>
 </g>
 <g class="SlideGroup">
  <g>
   <g id="container-id1">
    <g id="id1" class="Slide" clip-path="url(#presentation_clip_path)">
     <g class="Page">
      <g class="com.sun.star.drawing.PolyPolygonShape">
       <g id="id3">
        <rect class="BoundingBox" stroke="none" fill="none" x="245" y="1716" width="4576" height="2491"/>
        <path fill="rgb(139,177,197)" stroke="none" d="M 553,1717 L 553,1717 533,1718 513,1720 493,1723 473,1727 454,1734 435,1741 417,1749 399,1758 382,1769 365,1781 350,1793 336,1808 321,1822 309,1838 296,1854 286,1872 277,1889 269,1908 261,1927 255,1946 251,1966 248,1985 246,2006 245,2026 245,3896 245,3897 246,3917 248,3938 251,3957 255,3977 261,3996 269,4015 277,4034 286,4051 296,4069 309,4085 321,4101 336,4115 350,4130 365,4142 382,4154 399,4165 417,4174 435,4182 454,4189 473,4196 493,4200 513,4203 533,4205 553,4206 4511,4206 4512,4206 4532,4205 4552,4203 4572,4200 4592,4196 4611,4189 4630,4182 4648,4174 4666,4165 4683,4154 4700,4142 4715,4130 4729,4115 4744,4101 4756,4085 4769,4069 4779,4051 4788,4034 4796,4015 4804,3996 4810,3977 4814,3957 4817,3938 4819,3917 4820,3897 4820,2026 4820,2026 4820,2026 4819,2006 4817,1985 4814,1966 4810,1946 4804,1927 4796,1908 4788,1889 4779,1872 4769,1854 4756,1838 4744,1822 4729,1808 4715,1793 4700,1781 4683,1769 4666,1758 4648,1749 4630,1741 4611,1734 4592,1727 4572,1723 4552,1720 4532,1718 4512,1717 553,1717 Z"/>
       </g>
      </g>
      <g class="com.sun.star.drawing.PolyPolygonShape">
       <g id="id4">
        <rect class="BoundingBox" stroke="none" fill="none" x="1108" y="880" width="2892" height="2693"/>
        <path fill="rgb(139,177,197)" stroke="none" d="M 1188,3492 L 1188,960 3919,960 3919,3492 1188,3492 Z"/>
        <path fill="none" stroke="rgb(61,61,61)" stroke-width="159" stroke-linejoin="round" d="M 1188,3492 L 1188,960 3919,960 3919,3492 1188,3492 Z"/>
       </g>
      </g>
      <g class="com.sun.star.drawing.PolyPolygonShape">
       <g id="id5">
        <rect class="BoundingBox" stroke="none" fill="none" x="528" y="2331" width="4025" height="1484"/>
        <path fill="rgb(139,177,197)" stroke="none" d="M 635,3708 L 4446,3708 3493,2437 1587,2437 635,3708 Z"/>
        <path fill="none" stroke="rgb(61,61,61)" stroke-width="212" stroke-linejoin="round" d="M 635,3708 L 4446,3708 3493,2437 1587,2437 635,3708 Z"/>
       </g>
      </g>
      <g class="com.sun.star.drawing.PolyPolygonShape">
       <g id="id6">
        <rect class="BoundingBox" stroke="none" fill="none" x="1587" y="1586" width="1907" height="163"/>
        <path fill="rgb(61,61,61)" stroke="none" d="M 1667,1587 L 1668,1587 1662,1587 1657,1588 1652,1589 1647,1590 1642,1591 1637,1593 1632,1595 1627,1598 1623,1601 1618,1604 1614,1607 1611,1611 1607,1614 1604,1618 1601,1623 1598,1627 1595,1632 1593,1637 1591,1642 1590,1647 1589,1652 1588,1657 1587,1662 1587,1668 1587,1667 1587,1668 1587,1673 1588,1678 1589,1683 1590,1688 1591,1693 1593,1698 1595,1703 1598,1708 1601,1712 1604,1717 1607,1721 1611,1724 1614,1728 1618,1731 1623,1734 1627,1737 1632,1740 1637,1742 1642,1744 1647,1745 1652,1746 1657,1747 1662,1748 1668,1748 3412,1748 3413,1748 3418,1748 3423,1747 3428,1746 3433,1745 3438,1744 3443,1742 3448,1740 3453,1737 3457,1734 3462,1731 3466,1728 3469,1724 3473,1721 3476,1717 3479,1712 3482,1708 3485,1703 3487,1698 3489,1693 3490,1688 3491,1683 3492,1678 3493,1673 3493,1668 3493,1667 3493,1668 3493,1668 3493,1662 3492,1657 3491,1652 3490,1647 3489,1642 3487,1637 3485,1632 3482,1627 3479,1623 3476,1618 3473,1614 3469,1611 3466,1607 3462,1604 3457,1601 3453,1598 3448,1595 3443,1593 3438,1591 3433,1590 3428,1589 3423,1588 3418,1587 3413,1587 1667,1587 Z"/>
       </g>
      </g>
      <g class="com.sun.star.drawing.PolyPolygonShape">
       <g id="id7">
        <rect class="BoundingBox" stroke="none" fill="none" x="1587" y="1904" width="1907" height="163"/>
        <path fill="rgb(61,61,61)" stroke="none" d="M 1667,1905 L 1668,1905 1662,1905 1657,1906 1652,1907 1647,1908 1642,1909 1637,1911 1632,1913 1627,1916 1623,1919 1618,1922 1614,1925 1611,1929 1607,1932 1604,1936 1601,1941 1598,1945 1595,1950 1593,1955 1591,1960 1590,1965 1589,1970 1588,1975 1587,1980 1587,1986 1587,1985 1587,1986 1587,1991 1588,1996 1589,2001 1590,2006 1591,2011 1593,2016 1595,2021 1598,2026 1601,2030 1604,2035 1607,2039 1611,2042 1614,2046 1618,2049 1623,2052 1627,2055 1632,2058 1637,2060 1642,2062 1647,2063 1652,2064 1657,2065 1662,2066 1668,2066 3412,2066 3413,2066 3418,2066 3423,2065 3428,2064 3433,2063 3438,2062 3443,2060 3448,2058 3453,2055 3457,2052 3462,2049 3466,2046 3469,2042 3473,2039 3476,2035 3479,2030 3482,2026 3485,2021 3487,2016 3489,2011 3490,2006 3491,2001 3492,1996 3493,1991 3493,1986 3493,1985 3493,1986 3493,1986 3493,1980 3492,1975 3491,1970 3490,1965 3489,1960 3487,1955 3485,1950 3482,1945 3479,1941 3476,1936 3473,1932 3469,1929 3466,1925 3462,1922 3457,1919 3453,1916 3448,1913 3443,1911 3438,1909 3433,1908 3428,1907 3423,1906 3418,1905 3413,1905 1667,1905 Z"/>
       </g>
      </g>
      <g class="com.sun.star.drawing.PolyPolygonShape">
       <g id="id8">
        <rect class="BoundingBox" stroke="none" fill="none" x="1587" y="1270" width="1907" height="162"/>
        <path fill="rgb(61,61,61)" stroke="none" d="M 1667,1270 L 1668,1270 1662,1270 1657,1271 1652,1272 1647,1273 1642,1274 1637,1276 1632,1278 1627,1281 1623,1284 1618,1287 1614,1290 1611,1294 1607,1297 1604,1301 1601,1306 1598,1310 1595,1315 1593,1320 1591,1325 1590,1330 1589,1335 1588,1340 1587,1345 1587,1351 1587,1350 1587,1351 1587,1356 1588,1361 1589,1366 1590,1371 1591,1376 1593,1381 1595,1386 1598,1391 1601,1395 1604,1400 1607,1404 1611,1407 1614,1411 1618,1414 1623,1417 1627,1420 1632,1423 1637,1425 1642,1427 1647,1428 1652,1429 1657,1430 1662,1431 1668,1431 3412,1431 3413,1431 3418,1431 3423,1430 3428,1429 3433,1428 3438,1427 3443,1425 3448,1423 3453,1420 3457,1417 3462,1414 3466,1411 3469,1407 3473,1404 3476,1400 3479,1395 3482,1391 3485,1386 3487,1381 3489,1376 3490,1371 3491,1366 3492,1361 3493,1356 3493,1351 3493,1350 3493,1351 3493,1351 3493,1345 3492,1340 3491,1335 3490,1330 3489,1325 3487,1320 3485,1315 3482,1310 3479,1306 3476,1301 3473,1297 3469,1294 3466,1290 3462,1287 3457,1284 3453,1281 3448,1278 3443,1276 3438,1274 3433,1273 3428,1272 3423,1271 3418,1270 3413,1270 1667,1270 Z"/>
       </g>
      </g>
     </g>
    </g>
   </g>
  </g>
 </g>
</svg>